{
  "accessors": [
    {
      "bufferView": 0,
      "componentType": 5125,
      "count": 918,
      "max": [
        214
      ],
      "min": [
        0
      ],
      "type": "SCALAR"
    },
    {
      "bufferView": 1,
      "componentType": 5125,
      "count": 918,
      "max": [
        429
      ],
      "min": [
        215
      ],
      "type": "SCALAR"
    },
    {
      "bufferView": 2,
      "componentType": 5125,
      "count": 6360,
      "max": [
        1716
      ],
      "min": [
        430
      ],
      "type": "SCALAR"
    },
    {
      "bufferView": 3,
      "componentType": 5126,
      "count": 1717,
      "max": [
        7.424686431884766,
        170.2428741455078,
        6.087884426116943
      ],
      "min": [
        -7.303169250488281,
        160.78549194335938,
        -6.7520880699157715
      ],
      "type": "VEC3"
    },
    {
      "bufferView": 4,
      "componentType": 5126,
      "count": 1717,
      "max": [
        0.9998051524162292,
        0.9993888139724731,
        0.9991013407707214
      ],
      "min": [
        -0.9981483221054077,
        -0.9999844431877136,
        -0.9999004602432251
      ],
      "type": "VEC3"
    },
    {
      "bufferView": 5,
      "componentType": 5126,
      "count": 1717,
      "max": [
        0.3989115059375763,
        0.9346441030502319
      ],
      "min": [
        0.008220825344324112,
        0.9061219096183777
      ],
      "type": "VEC2"
    },
    {
      "bufferView": 6,
      "componentType": 5125,
      "count": 1905,
      "max": [
        371
      ],
      "min": [
        0
      ],
      "type": "SCALAR"
    },
    {
      "bufferView": 7,
      "componentType": 5125,
      "count": 1905,
      "max": [
        743
      ],
      "min": [
        372
      ],
      "type": "SCALAR"
    },
    {
      "bufferView": 8,
      "componentType": 5125,
      "count": 6420,
      "max": [
        1975
      ],
      "min": [
        744
      ],
      "type": "SCALAR"
    },
    {
      "bufferView": 9,
      "componentType": 5126,
      "count": 1976,
      "max": [
        8.364777565002441,
        170.97689819335938,
        6.92056131362915
      ],
      "min": [
        -8.38000774383545,
        157.7193145751953,
        -7.136343479156494
      ],
      "type": "VEC3"
    },
    {
      "bufferView": 10,
      "componentType": 5126,
      "count": 1976,
      "max": [
        0.9966504573822021,
        0.9272528886795044,
        0.9998810887336731
      ],
      "min": [
        -0.9945269823074341,
        -0.9998726844787598,
        -0.9987465739250183
      ],
      "type": "VEC3"
    },
    {
      "bufferView": 11,
      "componentType": 5126,
      "count": 1976,
      "max": [
        0.7467018365859985,
        0.8933266401290894
      ],
      "min": [
        0.3672860264778137,
        0.8272284865379333
      ],
      "type": "VEC2"
    },
    {
      "bufferView": 12,
      "componentType": 5125,
      "count": 13089,
      "max": [
        2456
      ],
      "min": [
        0
      ],
      "type": "SCALAR"
    },
    {
      "bufferView": 13,
      "componentType": 5125,
      "count": 13089,
      "max": [
        4913
      ],
      "min": [
        2457
      ],
      "type": "SCALAR"
    },
    {
      "bufferView": 14,
      "componentType": 5125,
      "count": 16140,
      "max": [
        8015
      ],
      "min": [
        4914
      ],
      "type": "SCALAR"
    },
    {
      "bufferView": 15,
      "componentType": 5126,
      "count": 8016,
      "max": [
        1.4389315843582153,
        165.33993530273438,
        14.444075584411621
      ],
      "min": [
        -21.774503707885742,
        95.8036880493164,
        -3.2857322692871094
      ],
      "type": "VEC3"
    },
    {
      "bufferView": 16,
      "componentType": 5126,
      "count": 8016,
      "max": [
        0.9999647736549377,
        0.9995583295822144,
        0.9999983310699463
      ],
      "min": [
        -0.9997973442077637,
        -0.9992527365684509,
        -0.9999942779541016
      ],
      "type": "VEC3"
    },
    {
      "bufferView": 17,
      "componentType": 5126,
      "count": 8016,
      "max": [
        0.7226031422615051,
        0.627315104007721
      ],
      "min": [
        0.4808361828327179,
        0.0224229097366333
      ],
      "type": "VEC2"
    },
    {
      "bufferView": 18,
      "componentType": 5125,
      "count": 2472,
      "max": [
        502
      ],
      "min": [
        0
      ],
      "type": "SCALAR"
    },
    {
      "bufferView": 19,
      "componentType": 5125,
      "count": 2472,
      "max": [
        1005
      ],
      "min": [
        503
      ],
      "type": "SCALAR"
    },
    {
      "bufferView": 20,
      "componentType": 5125,
      "count": 8640,
      "max": [
        2655
      ],
      "min": [
        1006
      ],
      "type": "SCALAR"
    },
    {
      "bufferView": 21,
      "componentType": 5126,
      "count": 2656,
      "max": [
        1.4607312679290771,
        161.14804077148438,
        14.64875316619873
      ],
      "min": [
        -2.5727076530456543,
        96.03702545166016,
        4.901992321014404
      ],
      "type": "VEC3"
    },
    {
      "bufferView": 22,
      "componentType": 5126,
      "count": 2656,
      "max": [
        0.9999912977218628,
        0.9986287355422974,
        0.9999960064888
      ],
      "min": [
        -0.9999740719795227,
        -0.999481737613678,
        -0.9999977350234985
      ],
      "type": "VEC3"
    },
    {
      "bufferView": 23,
      "componentType": 5126,
      "count": 2656,
      "max": [
        0.9921875,
        0.5736284255981445
      ],
      "min": [
        0.9653910994529724,
        0.02239447832107544
      ],
      "type": "VEC2"
    },
    {
      "bufferView": 24,
      "componentType": 5125,
      "count": 10536,
      "max": [
        1940
      ],
      "min": [
        0
      ],
      "type": "SCALAR"
    },
    {
      "bufferView": 25,
      "componentType": 5125,
      "count": 10536,
      "max": [
        3881
      ],
      "min": [
        1941
      ],
      "type": "SCALAR"
    },
    {
      "bufferView": 26,
      "componentType": 5125,
      "count": 15720,
      "max": [
        6884
      ],
      "min": [
        3882
      ],
      "type": "SCALAR"
    },
    {
      "bufferView": 27,
      "componentType": 5126,
      "count": 6885,
      "max": [
        21.79530906677246,
        165.1628875732422,
        14.728657722473145
      ],
      "min": [
        0.40686890482902527,
        95.88314056396484,
        -2.868007183074951
      ],
      "type": "VEC3"
    },
    {
      "bufferView": 28,
      "componentType": 5126,
      "count": 6885,
      "max": [
        0.9999643564224243,
        0.9978860020637512,
        0.9999831318855286
      ],
      "min": [
        -0.9998974204063416,
        -0.9997321963310242,
        -0.9999832510948181
      ],
      "type": "VEC3"
    },
    {
      "bufferView": 29,
      "componentType": 5126,
      "count": 6885,
      "max": [
        0.9525908827781677,
        0.6273255944252014
      ],
      "min": [
        0.7353928089141846,
        0.022423923015594482
      ],
      "type": "VEC2"
    },
    {
      "bufferView": 30,
      "componentType": 5125,
      "count": 3780,
      "max": [
        703
      ],
      "min": [
        0
      ],
      "type": "SCALAR"
    },
    {
      "bufferView": 31,
      "componentType": 5125,
      "count": 3780,
      "max": [
        1407
      ],
      "min": [
        704
      ],
      "type": "SCALAR"
    },
    {
      "bufferView": 32,
      "componentType": 5125,
      "count": 7800,
      "max": [
        2925
      ],
      "min": [
        1408
      ],
      "type": "SCALAR"
    },
    {
      "bufferView": 33,
      "componentType": 5126,
      "count": 2926,
      "max": [
        22.137889862060547,
        167.11599731445313,
        0.08205246180295944
      ],
      "min": [
        -22.059139251708984,
        155.63711547851563,
        -12.178731918334961
      ],
      "type": "VEC3"
    },
    {
      "bufferView": 34,
      "componentType": 5126,
      "count": 2926,
      "max": [
        0.9998247623443604,
        0.9985890984535217,
        0.9994920492172241
      ],
      "min": [
        -0.9991928339004517,
        -0.9999887943267822,
        -0.9999173283576965
      ],
      "type": "VEC3"
    },
    {
      "bufferView": 35,
      "componentType": 5126,
      "count": 2926,
      "max": [
        0.4087156057357788,
        0.6876891255378723
      ],
      "min": [
        0.008220947347581387,
        0.5596655607223511
      ],
      "type": "VEC2"
    },
    {
      "bufferView": 36,
      "componentType": 5125,
      "count": 20202,
      "max": [
        3530
      ],
      "min": [
        0
      ],
      "type": "SCALAR"
    },
    {
      "bufferView": 37,
      "componentType": 5125,
      "count": 20202,
      "max": [
        7061
      ],
      "min": [
        3531
      ],
      "type": "SCALAR"
    },
    {
      "bufferView": 38,
      "componentType": 5125,
      "count": 14040,
      "max": [
        9811
      ],
      "min": [
        7062
      ],
      "type": "SCALAR"
    },
    {
      "bufferView": 39,
      "componentType": 5126,
      "count": 9812,
      "max": [
        22.013185501098633,
        157.65325927734375,
        1.0754612684249878
      ],
      "min": [
        -21.750402450561523,
        93.78890228271484,
        -14.545613288879395
      ],
      "type": "VEC3"
    },
    {
      "bufferView": 40,
      "componentType": 5126,
      "count": 9812,
      "max": [
        0.9999578595161438,
        0.9998708963394165,
        0.9999831318855286
      ],
      "min": [
        -0.9999709129333496,
        -0.9988987445831299,
        -0.999984860420227
      ],
      "type": "VEC3"
    },
    {
      "bufferView": 41,
      "componentType": 5126,
      "count": 9812,
      "max": [
        0.468036025762558,
        0.5468398928642273
      ],
      "min": [
        0.008220825344324112,
        0.022388696670532227
      ],
      "type": "VEC2"
    },
    {
      "bufferView": 42,
      "componentType": 5125,
      "count": 1092,
      "max": [
        236
      ],
      "min": [
        0
      ],
      "type": "SCALAR"
    },
    {
      "bufferView": 43,
      "componentType": 5125,
      "count": 1092,
      "max": [
        473
      ],
      "min": [
        237
      ],
      "type": "SCALAR"
    },
    {
      "bufferView": 44,
      "componentType": 5125,
      "count": 2880,
      "max": [
        1045
      ],
      "min": [
        474
      ],
      "type": "SCALAR"
    },
    {
      "bufferView": 45,
      "componentType": 5126,
      "count": 1046,
      "max": [
        15.932374954223633,
        154.29006958007813,
        12.15909481048584
      ],
      "min": [
        4.51181173324585,
        143.04820251464844,
        6.513371467590332
      ],
      "type": "VEC3"
    },
    {
      "bufferView": 46,
      "componentType": 5126,
      "count": 1046,
      "max": [
        0.996553361415863,
        0.9993411898612976,
        0.9974390268325806
      ],
      "min": [
        -0.99918133020401,
        -0.9991164207458496,
        -0.9996737837791443
      ],
      "type": "VEC3"
    },
    {
      "bufferView": 47,
      "componentType": 5126,
      "count": 1046,
      "max": [
        0.8825196623802185,
        0.7312829494476318
      ],
      "min": [
        0.7805778384208679,
        0.640089213848114
      ],
      "type": "VEC2"
    },
    {
      "bufferView": 48,
      "componentType": 5125,
      "count": 405,
      "max": [
        86
      ],
      "min": [
        0
      ],
      "type": "SCALAR"
    },
    {
      "bufferView": 49,
      "componentType": 5125,
      "count": 405,
      "max": [
        173
      ],
      "min": [
        87
      ],
      "type": "SCALAR"
    },
    {
      "bufferView": 50,
      "componentType": 5125,
      "count": 2220,
      "max": [
        635
      ],
      "min": [
        174
      ],
      "type": "SCALAR"
    },
    {
      "bufferView": 51,
      "componentType": 5126,
      "count": 636,
      "max": [
        16.240026473999023,
        154.34185791015625,
        10.639843940734863
      ],
      "min": [
        4.283468723297119,
        149.97068786621094,
        6.512059211730957
      ],
      "type": "VEC3"
    },
    {
      "bufferView": 52,
      "componentType": 5126,
      "count": 636,
      "max": [
        0.9952455163002014,
        0.999962329864502,
        0.9995056390762329
      ],
      "min": [
        -0.9990039467811584,
        -0.9996616840362549,
        -0.9997275471687317
      ],
      "type": "VEC3"
    },
    {
      "bufferView": 53,
      "componentType": 5126,
      "count": 636,
      "max": [
        0.8290529251098633,
        0.9499891400337219
      ],
      "min": [
        0.7271108031272888,
        0.9135080575942993
      ],
      "type": "VEC2"
    },
    {
      "bufferView": 54,
      "componentType": 5125,
      "count": 1092,
      "max": [
        236
      ],
      "min": [
        0
      ],
      "type": "SCALAR"
    },
    {
      "bufferView": 55,
      "componentType": 5125,
      "count": 1092,
      "max": [
        473
      ],
      "min": [
        237
      ],
      "type": "SCALAR"
    },
    {
      "bufferView": 56,
      "componentType": 5125,
      "count": 2880,
      "max": [
        1045
      ],
      "min": [
        474
      ],
      "type": "SCALAR"
    },
    {
      "bufferView": 57,
      "componentType": 5126,
      "count": 1046,
      "max": [
        -4.037683963775635,
        154.2933349609375,
        12.04105281829834
      ],
      "min": [
        -15.577844619750977,
        143.2783660888672,
        6.798535346984863
      ],
      "type": "VEC3"
    },
    {
      "bufferView": 58,
      "componentType": 5126,
      "count": 1046,
      "max": [
        0.999913215637207,
        0.9994215965270996,
        0.9989610910415649
      ],
      "min": [
        -0.9963653087615967,
        -0.9992977380752563,
        -0.9994609355926514
      ],
      "type": "VEC3"
    },
    {
      "bufferView": 59,
      "componentType": 5126,
      "count": 1046,
      "max": [
        0.8825196623802185,
        0.8352733254432678
      ],
      "min": [
        0.7805778384208679,
        0.74407958984375
      ],
      "type": "VEC2"
    },
    {
      "bufferView": 60,
      "componentType": 5125,
      "count": 585,
      "max": [
        124
      ],
      "min": [
        0
      ],
      "type": "SCALAR"
    },
    {
      "bufferView": 61,
      "componentType": 5125,
      "count": 585,
      "max": [
        249
      ],
      "min": [
        125
      ],
      "type": "SCALAR"
    },
    {
      "bufferView": 62,
      "componentType": 5125,
      "count": 2100,
      "max": [
        700
      ],
      "min": [
        250
      ],
      "type": "SCALAR"
    },
    {
      "bufferView": 63,
      "componentType": 5126,
      "count": 701,
      "max": [
        -9.236701965332031,
        165.50576782226563,
        2.5129306316375732
      ],
      "min": [
        -20.92255210876465,
        160.59461975097656,
        -3.252554416656494
      ],
      "type": "VEC3"
    },
    {
      "bufferView": 64,
      "componentType": 5126,
      "count": 701,
      "max": [
        0.9937470555305481,
        0.9960368275642395,
        0.9979760646820068
      ],
      "min": [
        -0.9572576284408569,
        -0.9960587024688721,
        -0.9985160231590271
      ],
      "type": "VEC3"
    },
    {
      "bufferView": 65,
      "componentType": 5126,
      "count": 701,
      "max": [
        0.9462648630142212,
        0.9568453431129456
      ],
      "min": [
        0.8422576785087585,
        0.9135277271270752
      ],
      "type": "VEC2"
    },
    {
      "bufferView": 66,
      "componentType": 5125,
      "count": 615,
      "max": [
        129
      ],
      "min": [
        0
      ],
      "type": "SCALAR"
    },
    {
      "bufferView": 67,
      "componentType": 5125,
      "count": 615,
      "max": [
        259
      ],
      "min": [
        130
      ],
      "type": "SCALAR"
    },
    {
      "bufferView": 68,
      "componentType": 5125,
      "count": 2100,
      "max": [
        710
      ],
      "min": [
        260
      ],
      "type": "SCALAR"
    },
    {
      "bufferView": 69,
      "componentType": 5126,
      "count": 711,
      "max": [
        21.097055435180664,
        165.53578186035156,
        2.6496965885162354
      ],
      "min": [
        8.884315490722656,
        160.3311309814453,
        -3.1316893100738525
      ],
      "type": "VEC3"
    },
    {
      "bufferView": 70,
      "componentType": 5126,
      "count": 711,
      "max": [
        0.9553066492080688,
        0.997561514377594,
        0.992400050163269
      ],
      "min": [
        -0.9886836409568787,
        -0.9961099028587341,
        -0.9988561272621155
      ],
      "type": "VEC3"
    },
    {
      "bufferView": 71,
      "componentType": 5126,
      "count": 711,
      "max": [
        0.11181976646184921,
        0.9907593727111816
      ],
      "min": [
        0.00781258475035429,
        0.9474417567253113
      ],
      "type": "VEC2"
    },
    {
      "bufferView": 72,
      "componentType": 5125,
      "count": 264,
      "max": [
        59
      ],
      "min": [
        0
      ],
      "type": "SCALAR"
    },
    {
      "bufferView": 73,
      "componentType": 5125,
      "count": 264,
      "max": [
        119
      ],
      "min": [
        60
      ],
      "type": "SCALAR"
    },
    {
      "bufferView": 74,
      "componentType": 5125,
      "count": 1800,
      "max": [
        493
      ],
      "min": [
        120
      ],
      "type": "SCALAR"
    },
    {
      "bufferView": 75,
      "componentType": 5126,
      "count": 494,
      "max": [
        12.036992073059082,
        153.89218139648438,
        12.043675422668457
      ],
      "min": [
        8.625622749328613,
        143.8429412841797,
        8.214818000793457
      ],
      "type": "VEC3"
    },
    {
      "bufferView": 76,
      "componentType": 5126,
      "count": 494,
      "max": [
        0.9950141906738281,
        0.9999777674674988,
        0.9993547797203064
      ],
      "min": [
        -0.9999706149101257,
        -0.9970149397850037,
        -0.991797149181366
      ],
      "type": "VEC3"
    },
    {
      "bufferView": 77,
      "componentType": 5126,
      "count": 494,
      "max": [
        0.39550501108169556,
        0.7899450063705444
      ],
      "min": [
        0.3672860264778137,
        0.70046067237854
      ],
      "type": "VEC2"
    },
    {
      "bufferView": 78,
      "componentType": 5125,
      "count": 264,
      "max": [
        59
      ],
      "min": [
        0
      ],
      "type": "SCALAR"
    },
    {
      "bufferView": 79,
      "componentType": 5125,
      "count": 264,
      "max": [
        119
      ],
      "min": [
        60
      ],
      "type": "SCALAR"
    },
    {
      "bufferView": 80,
      "componentType": 5125,
      "count": 1800,
      "max": [
        493
      ],
      "min": [
        120
      ],
      "type": "SCALAR"
    },
    {
      "bufferView": 81,
      "componentType": 5126,
      "count": 494,
      "max": [
        -8.4212064743042,
        153.67762756347656,
        11.870732307434082
      ],
      "min": [
        -11.747855186462402,
        143.8726348876953,
        8.48075008392334
      ],
      "type": "VEC3"
    },
    {
      "bufferView": 82,
      "componentType": 5126,
      "count": 494,
      "max": [
        0.9999306797981262,
        0.9985634088516235,
        0.9995399713516235
      ],
      "min": [
        -0.9999017715454102,
        -0.9987236857414246,
        -0.9991989135742188
      ],
      "type": "VEC3"
    },
    {
      "bufferView": 83,
      "componentType": 5126,
      "count": 494,
      "max": [
        0.9235354065895081,
        0.7295734882354736
      ],
      "min": [
        0.8953163623809814,
        0.6400891542434692
      ],
      "type": "VEC2"
    },
    {
      "bufferView": 84,
      "componentType": 5125,
      "count": 405,
      "max": [
        86
      ],
      "min": [
        0
      ],
      "type": "SCALAR"
    },
    {
      "bufferView": 85,
      "componentType": 5125,
      "count": 405,
      "max": [
        173
      ],
      "min": [
        87
      ],
      "type": "SCALAR"
    },
    {
      "bufferView": 86,
      "componentType": 5125,
      "count": 2220,
      "max": [
        635
      ],
      "min": [
        174
      ],
      "type": "SCALAR"
    },
    {
      "bufferView": 87,
      "componentType": 5126,
      "count": 636,
      "max": [
        -4.0327982902526855,
        154.2930908203125,
        11.77946662902832
      ],
      "min": [
        -16.169832229614258,
        151.19805908203125,
        6.805728435516357
      ],
      "type": "VEC3"
    },
    {
      "bufferView": 88,
      "componentType": 5126,
      "count": 636,
      "max": [
        0.9998272061347961,
        0.9998558759689331,
        0.9991940855979919
      ],
      "min": [
        -0.9972389936447144,
        -0.9981032013893127,
        -0.9930881857872009
      ],
      "type": "VEC3"
    },
    {
      "bufferView": 89,
      "componentType": 5126,
      "count": 636,
      "max": [
        0.22696663439273834,
        0.9839033484458923
      ],
      "min": [
        0.12502466142177582,
        0.9474222660064697
      ],
      "type": "VEC2"
    },
    {
      "bufferView": 90,
      "componentType": 5125,
      "count": 420,
      "max": [
        87
      ],
      "min": [
        0
      ],
      "type": "SCALAR"
    },
    {
      "bufferView": 91,
      "componentType": 5125,
      "count": 420,
      "max": [
        175
      ],
      "min": [
        88
      ],
      "type": "SCALAR"
    },
    {
      "bufferView": 92,
      "componentType": 5125,
      "count": 2040,
      "max": [
        593
      ],
      "min": [
        176
      ],
      "type": "SCALAR"
    },
    {
      "bufferView": 93,
      "componentType": 5126,
      "count": 594,
      "max": [
        -10.557761192321777,
        164.89561462402344,
        3.022536516189575
      ],
      "min": [
        -19.616056442260742,
        160.55625915527344,
        -3.4813382625579834
      ],
      "type": "VEC3"
    },
    {
      "bufferView": 94,
      "componentType": 5126,
      "count": 594,
      "max": [
        0.9970917701721191,
        0.9885261058807373,
        0.9927034378051758
      ],
      "min": [
        -0.9938596487045288,
        -0.9964531064033508,
        -0.989602267742157
      ],
      "type": "VEC3"
    },
    {
      "bufferView": 95,
      "componentType": 5126,
      "count": 594,
      "max": [
        0.827454686164856,
        0.900731086730957
      ],
      "min": [
        0.7594985365867615,
        0.8480700850486755
      ],
      "type": "VEC2"
    },
    {
      "bufferView": 96,
      "componentType": 5125,
      "count": 420,
      "max": [
        87
      ],
      "min": [
        0
      ],
      "type": "SCALAR"
    },
    {
      "bufferView": 97,
      "componentType": 5125,
      "count": 420,
      "max": [
        175
      ],
      "min": [
        88
      ],
      "type": "SCALAR"
    },
    {
      "bufferView": 98,
      "componentType": 5125,
      "count": 2040,
      "max": [
        593
      ],
      "min": [
        176
      ],
      "type": "SCALAR"
    },
    {
      "bufferView": 99,
      "componentType": 5126,
      "count": 594,
      "max": [
        18.914823532104492,
        165.2315216064453,
        2.9897537231445313
      ],
      "min": [
        9.883306503295898,
        160.74737548828125,
        -3.5485856533050537
      ],
      "type": "VEC3"
    },
    {
      "bufferView": 100,
      "componentType": 5126,
      "count": 594,
      "max": [
        0.9928290247917175,
        0.999925971031189,
        0.9954177141189575
      ],
      "min": [
        -0.9986888766288757,
        -0.9961634278297424,
        -0.9916963577270508
      ],
      "type": "VEC3"
    },
    {
      "bufferView": 101,
      "componentType": 5126,
      "count": 594,
      "max": [
        0.9082075357437134,
        0.9007309675216675
      ],
      "min": [
        0.8402513861656189,
        0.848069965839386
      ],
      "type": "VEC2"
    },
    {
      "bufferView": 102,
      "componentType": 5125,
      "count": 84,
      "max": [
        23
      ],
      "min": [
        0
      ],
      "type": "SCALAR"
    },
    {
      "bufferView": 103,
      "componentType": 5125,
      "count": 84,
      "max": [
        47
      ],
      "min": [
        24
      ],
      "type": "SCALAR"
    },
    {
      "bufferView": 104,
      "componentType": 5125,
      "count": 1080,
      "max": [
        289
      ],
      "min": [
        48
      ],
      "type": "SCALAR"
    },
    {
      "bufferView": 105,
      "componentType": 5126,
      "count": 290,
      "max": [
        18.906604766845703,
        163.62655639648438,
        3.000272035598755
      ],
      "min": [
        16.127275466918945,
        161.01953125,
        -2.681583881378174
      ],
      "type": "VEC3"
    },
    {
      "bufferView": 106,
      "componentType": 5126,
      "count": 290,
      "max": [
        0.9992741942405701,
        0.9992432594299316,
        0.9867880940437317
      ],
      "min": [
        -0.9956546425819397,
        -0.9970889687538147,
        -0.9897856712341309
      ],
      "type": "VEC3"
    },
    {
      "bufferView": 107,
      "componentType": 5126,
      "count": 290,
      "max": [
        0.43599075078964233,
        0.6122995615005493
      ],
      "min": [
        0.4215129613876343,
        0.5596386194229126
      ],
      "type": "VEC2"
    },
    {
      "bufferView": 108,
      "componentType": 5125,
      "count": 84,
      "max": [
        23
      ],
      "min": [
        0
      ],
      "type": "SCALAR"
    },
    {
      "bufferView": 109,
      "componentType": 5125,
      "count": 84,
      "max": [
        47
      ],
      "min": [
        24
      ],
      "type": "SCALAR"
    },
    {
      "bufferView": 110,
      "componentType": 5125,
      "count": 1080,
      "max": [
        289
      ],
      "min": [
        48
      ],
      "type": "SCALAR"
    },
    {
      "bufferView": 111,
      "componentType": 5126,
      "count": 290,
      "max": [
        17.502952575683594,
        163.99888610839844,
        2.8434152603149414
      ],
      "min": [
        14.963579177856445,
        161.43194580078125,
        -2.8312814235687256
      ],
      "type": "VEC3"
    },
    {
      "bufferView": 112,
      "componentType": 5126,
      "count": 290,
      "max": [
        0.9982370138168335,
        0.9993249177932739,
        0.9901463389396667
      ],
      "min": [
        -0.9965783357620239,
        -0.9933069944381714,
        -0.9909390211105347
      ],
      "type": "VEC3"
    },
    {
      "bufferView": 113,
      "componentType": 5126,
      "count": 290,
      "max": [
        0.46117597818374634,
        0.612528920173645
      ],
      "min": [
        0.4487873613834381,
        0.5596386194229126
      ],
      "type": "VEC2"
    },
    {
      "bufferView": 114,
      "componentType": 5125,
      "count": 252,
      "max": [
        55
      ],
      "min": [
        0
      ],
      "type": "SCALAR"
    },
    {
      "bufferView": 115,
      "componentType": 5125,
      "count": 252,
      "max": [
        111
      ],
      "min": [
        56
      ],
      "type": "SCALAR"
    },
    {
      "bufferView": 116,
      "componentType": 5125,
      "count": 1560,
      "max": [
        441
      ],
      "min": [
        112
      ],
      "type": "SCALAR"
    },
    {
      "bufferView": 117,
      "componentType": 5126,
      "count": 442,
      "max": [
        16.351882934570313,
        165.4613494873047,
        2.6775097846984863
      ],
      "min": [
        9.87636947631836,
        161.75265502929688,
        -3.540997266769409
      ],
      "type": "VEC3"
    },
    {
      "bufferView": 118,
      "componentType": 5126,
      "count": 442,
      "max": [
        0.9981718063354492,
        0.9974572062492371,
        0.9903411865234375
      ],
      "min": [
        -0.9967145323753357,
        -0.994556188583374,
        -0.9892193675041199
      ],
      "type": "VEC3"
    },
    {
      "bufferView": 119,
      "componentType": 5126,
      "count": 442,
      "max": [
        0.9410907626152039,
        0.7950311303138733
      ],
      "min": [
        0.8953164219856262,
        0.7423702478408813
      ],
      "type": "VEC2"
    },
    {
      "bufferView": 120,
      "componentType": 5125,
      "count": 252,
      "max": [
        55
      ],
      "min": [
        0
      ],
      "type": "SCALAR"
    },
    {
      "bufferView": 121,
      "componentType": 5125,
      "count": 252,
      "max": [
        111
      ],
      "min": [
        56
      ],
      "type": "SCALAR"
    },
    {
      "bufferView": 122,
      "componentType": 5125,
      "count": 1560,
      "max": [
        441
      ],
      "min": [
        112
      ],
      "type": "SCALAR"
    },
    {
      "bufferView": 123,
      "componentType": 5126,
      "count": 442,
      "max": [
        -10.68500804901123,
        165.5332489013672,
        2.5991477966308594
      ],
      "min": [
        -17.378856658935547,
        161.73216247558594,
        -3.4874255657196045
      ],
      "type": "VEC3"
    },
    {
      "bufferView": 124,
      "componentType": 5126,
      "count": 442,
      "max": [
        0.9951480627059937,
        0.9895411133766174,
        0.9979553818702698
      ],
      "min": [
        -0.993009090423584,
        -0.9977346062660217,
        -0.9938852787017822
      ],
      "type": "VEC3"
    },
    {
      "bufferView": 125,
      "componentType": 5126,
      "count": 442,
      "max": [
        0.969033420085907,
        0.860488772392273
      ],
      "min": [
        0.9210041761398315,
        0.8078277707099915
      ],
      "type": "VEC2"
    },
    {
      "bufferView": 126,
      "componentType": 5125,
      "count": 84,
      "max": [
        23
      ],
      "min": [
        0
      ],
      "type": "SCALAR"
    },
    {
      "bufferView": 127,
      "componentType": 5125,
      "count": 84,
      "max": [
        47
      ],
      "min": [
        24
      ],
      "type": "SCALAR"
    },
    {
      "bufferView": 128,
      "componentType": 5125,
      "count": 1080,
      "max": [
        289
      ],
      "min": [
        48
      ],
      "type": "SCALAR"
    },
    {
      "bufferView": 129,
      "componentType": 5126,
      "count": 290,
      "max": [
        -15.696070671081543,
        163.7429656982422,
        2.8328497409820557
      ],
      "min": [
        -18.500614166259766,
        161.29931640625,
        -2.8794636726379395
      ],
      "type": "VEC3"
    },
    {
      "bufferView": 130,
      "componentType": 5126,
      "count": 290,
      "max": [
        0.9978532195091248,
        0.993201494216919,
        0.9817965626716614
      ],
      "min": [
        -0.9940389394760132,
        -0.9985518455505371,
        -0.9865776300430298
      ],
      "type": "VEC3"
    },
    {
      "bufferView": 131,
      "componentType": 5126,
      "count": 290,
      "max": [
        0.9487206339836121,
        0.6929795742034912
      ],
      "min": [
        0.9363320469856262,
        0.6400891542434692
      ],
      "type": "VEC2"
    },
    {
      "bufferView": 132,
      "componentType": 5125,
      "count": 84,
      "max": [
        23
      ],
      "min": [
        0
      ],
      "type": "SCALAR"
    },
    {
      "bufferView": 133,
      "componentType": 5125,
      "count": 84,
      "max": [
        47
      ],
      "min": [
        24
      ],
      "type": "SCALAR"
    },
    {
      "bufferView": 134,
      "componentType": 5125,
      "count": 1080,
      "max": [
        289
      ],
      "min": [
        48
      ],
      "type": "SCALAR"
    },
    {
      "bufferView": 135,
      "componentType": 5126,
      "count": 290,
      "max": [
        -16.81585121154785,
        163.30091857910156,
        3.030014753341675
      ],
      "min": [
        -19.60927391052246,
        160.8621063232422,
        -2.682856321334839
      ],
      "type": "VEC3"
    },
    {
      "bufferView": 136,
      "componentType": 5126,
      "count": 290,
      "max": [
        0.998590350151062,
        0.9951444268226624,
        0.9855076670646667
      ],
      "min": [
        -0.9952338933944702,
        -0.9975262880325317,
        -0.9829031825065613
      ],
      "type": "VEC3"
    },
    {
      "bufferView": 137,
      "componentType": 5126,
      "count": 290,
      "max": [
        0.9661100506782532,
        0.7584371566772461
      ],
      "min": [
        0.9538872838020325,
        0.7057760953903198
      ],
      "type": "VEC2"
    },
    {
      "bufferView": 138,
      "componentType": 5125,
      "count": 3963,
      "max": [
        757
      ],
      "min": [
        0
      ],
      "type": "SCALAR"
    },
    {
      "bufferView": 139,
      "componentType": 5125,
      "count": 3963,
      "max": [
        1515
      ],
      "min": [
        758
      ],
      "type": "SCALAR"
    },
    {
      "bufferView": 140,
      "componentType": 5125,
      "count": 6660,
      "max": [
        2813
      ],
      "min": [
        1516
      ],
      "type": "SCALAR"
    },
    {
      "bufferView": 141,
      "componentType": 5126,
      "count": 2814,
      "max": [
        34.779048919677734,
        159.99867248535156,
        5.000870704650879
      ],
      "min": [
        18.417118072509766,
        136.99917602539063,
        -9.928598403930664
      ],
      "type": "VEC3"
    },
    {
      "bufferView": 142,
      "componentType": 5126,
      "count": 2814,
      "max": [
        0.9995970129966736,
        0.9999454021453857,
        0.9999678134918213
      ],
      "min": [
        -0.9991934299468994,
        -0.9999301433563232,
        -0.9999696016311646
      ],
      "type": "VEC3"
    },
    {
      "bufferView": 143,
      "componentType": 5126,
      "count": 2814,
      "max": [
        0.7677810192108154,
        0.8144453763961792
      ],
      "min": [
        0.4215124547481537,
        0.6401032209396362
      ],
      "type": "VEC2"
    },
    {
      "bufferView": 144,
      "componentType": 5125,
      "count": 3963,
      "max": [
        757
      ],
      "min": [
        0
      ],
      "type": "SCALAR"
    },
    {
      "bufferView": 145,
      "componentType": 5125,
      "count": 3963,
      "max": [
        1515
      ],
      "min": [
        758
      ],
      "type": "SCALAR"
    },
    {
      "bufferView": 146,
      "componentType": 5125,
      "count": 6660,
      "max": [
        2813
      ],
      "min": [
        1516
      ],
      "type": "SCALAR"
    },
    {
      "bufferView": 147,
      "componentType": 5126,
      "count": 2814,
      "max": [
        -18.503585815429688,
        160.1971893310547,
        4.946273326873779
      ],
      "min": [
        -34.75343704223633,
        137.16183471679688,
        -10.040188789367676
      ],
      "type": "VEC3"
    },
    {
      "bufferView": 148,
      "componentType": 5126,
      "count": 2814,
      "max": [
        0.9984854459762573,
        0.9948690533638,
        0.9999657273292542
      ],
      "min": [
        -0.9994104504585266,
        -0.9992523789405823,
        -0.9999682307243347
      ],
      "type": "VEC3"
    },
    {
      "bufferView": 149,
      "componentType": 5126,
      "count": 2814,
      "max": [
        0.35448935627937317,
        0.8748166561126709
      ],
      "min": [
        0.008220764808356762,
        0.7004746198654175
      ],
      "type": "VEC2"
    },
    {
      "bufferView": 150,
      "componentType": 5125,
      "count": 3924,
      "max": [
        835
      ],
      "min": [
        0
      ],
      "type": "SCALAR"
    },
    {
      "bufferView": 151,
      "componentType": 5125,
      "count": 4368,
      "max": [
        1708
      ],
      "min": [
        836
      ],
      "type": "SCALAR"
    },
    {
      "bufferView": 152,
      "componentType": 5126,
      "count": 1709,
      "max": [
        0.9999995231628418,
        0.32285499572753906,
        0.999969482421875
      ],
      "min": [
        -1.0000009536743164,
        -7.62939453125e-06,
        -1.0000457763671875
      ],
      "type": "VEC3"
    },
    {
      "bufferView": 153,
      "componentType": 5126,
      "count": 1709,
      "max": [
        1.0,
        1.0,
        0.999993622303009
      ],
      "min": [
        -0.9999603629112244,
        -1.0,
        -0.999993622303009
      ],
      "type": "VEC3"
    },
    {
      "bufferView": 154,
      "componentType": 5126,
      "count": 1709,
      "max": [
        0.6454391479492188,
        0.9921875596046448
      ],
      "min": [
        0.5221399664878845,
        0.9143124222755432
      ],
      "type": "VEC2"
    },
    {
      "bufferView": 155,
      "componentType": 5125,
      "count": 3924,
      "max": [
        835
      ],
      "min": [
        0
      ],
      "type": "SCALAR"
    },
    {
      "bufferView": 156,
      "componentType": 5125,
      "count": 4368,
      "max": [
        1708
      ],
      "min": [
        836
      ],
      "type": "SCALAR"
    },
    {
      "bufferView": 157,
      "componentType": 5126,
      "count": 1709,
      "max": [
        0.9999995231628418,
        0.3228569030761719,
        1.0
      ],
      "min": [
        -1.0000004768371582,
        -7.62939453125e-06,
        -1.0
      ],
      "type": "VEC3"
    },
    {
      "bufferView": 158,
      "componentType": 5126,
      "count": 1709,
      "max": [
        1.0,
        1.0,
        0.999993622303009
      ],
      "min": [
        -0.9999603629112244,
        -1.0,
        -0.999993622303009
      ],
      "type": "VEC3"
    },
    {
      "bufferView": 159,
      "componentType": 5126,
      "count": 1709,
      "max": [
        0.6454391479492188,
        0.9921875596046448
      ],
      "min": [
        0.5221399664878845,
        0.9143124222755432
      ],
      "type": "VEC2"
    },
    {
      "bufferView": 160,
      "componentType": 5125,
      "count": 3924,
      "max": [
        835
      ],
      "min": [
        0
      ],
      "type": "SCALAR"
    },
    {
      "bufferView": 161,
      "componentType": 5125,
      "count": 4368,
      "max": [
        1708
      ],
      "min": [
        836
      ],
      "type": "SCALAR"
    },
    {
      "bufferView": 162,
      "componentType": 5126,
      "count": 1709,
      "max": [
        1.0000076293945313,
        0.3228607177734375,
        0.9999847412109375
      ],
      "min": [
        -0.9999923706054688,
        -1.52587890625e-05,
        -1.000030517578125
      ],
      "type": "VEC3"
    },
    {
      "bufferView": 163,
      "componentType": 5126,
      "count": 1709,
      "max": [
        1.0,
        1.0,
        0.999993622303009
      ],
      "min": [
        -0.9999603629112244,
        -1.0,
        -0.999993622303009
      ],
      "type": "VEC3"
    },
    {
      "bufferView": 164,
      "componentType": 5126,
      "count": 1709,
      "max": [
        0.6454391479492188,
        0.9921875596046448
      ],
      "min": [
        0.5221399664878845,
        0.9143124222755432
      ],
      "type": "VEC2"
    },
    {
      "bufferView": 165,
      "componentType": 5125,
      "count": 3924,
      "max": [
        835
      ],
      "min": [
        0
      ],
      "type": "SCALAR"
    },
    {
      "bufferView": 166,
      "componentType": 5125,
      "count": 4368,
      "max": [
        1708
      ],
      "min": [
        836
      ],
      "type": "SCALAR"
    },
    {
      "bufferView": 167,
      "componentType": 5126,
      "count": 1709,
      "max": [
        0.9999990463256836,
        0.3228607177734375,
        1.0
      ],
      "min": [
        -1.0000009536743164,
        -7.62939453125e-06,
        -1.0
      ],
      "type": "VEC3"
    },
    {
      "bufferView": 168,
      "componentType": 5126,
      "count": 1709,
      "max": [
        1.0,
        1.0,
        0.999993622303009
      ],
      "min": [
        -0.9999603629112244,
        -1.0,
        -0.999993622303009
      ],
      "type": "VEC3"
    },
    {
      "bufferView": 169,
      "componentType": 5126,
      "count": 1709,
      "max": [
        0.6454391479492188,
        0.9921875596046448
      ],
      "min": [
        0.5221399664878845,
        0.9143124222755432
      ],
      "type": "VEC2"
    },
    {
      "bufferView": 170,
      "componentType": 5125,
      "count": 3924,
      "max": [
        835
      ],
      "min": [
        0
      ],
      "type": "SCALAR"
    },
    {
      "bufferView": 171,
      "componentType": 5125,
      "count": 4368,
      "max": [
        1708
      ],
      "min": [
        836
      ],
      "type": "SCALAR"
    },
    {
      "bufferView": 172,
      "componentType": 5126,
      "count": 1709,
      "max": [
        0.9999990463256836,
        0.3228588104248047,
        1.0
      ],
      "min": [
        -1.0000019073486328,
        -3.814697265625e-06,
        -1.0
      ],
      "type": "VEC3"
    },
    {
      "bufferView": 173,
      "componentType": 5126,
      "count": 1709,
      "max": [
        1.0,
        1.0,
        0.999993622303009
      ],
      "min": [
        -0.9999603629112244,
        -1.0,
        -0.999993622303009
      ],
      "type": "VEC3"
    },
    {
      "bufferView": 174,
      "componentType": 5126,
      "count": 1709,
      "max": [
        0.6454391479492188,
        0.9921875596046448
      ],
      "min": [
        0.5221399664878845,
        0.9143124222755432
      ],
      "type": "VEC2"
    },
    {
      "bufferView": 175,
      "componentType": 5125,
      "count": 3924,
      "max": [
        835
      ],
      "min": [
        0
      ],
      "type": "SCALAR"
    },
    {
      "bufferView": 176,
      "componentType": 5125,
      "count": 4368,
      "max": [
        1708
      ],
      "min": [
        836
      ],
      "type": "SCALAR"
    },
    {
      "bufferView": 177,
      "componentType": 5126,
      "count": 1709,
      "max": [
        1.0,
        0.3228607177734375,
        0.9999847412109375
      ],
      "min": [
        -1.0,
        -1.9073486328125e-06,
        -1.0000152587890625
      ],
      "type": "VEC3"
    },
    {
      "bufferView": 178,
      "componentType": 5126,
      "count": 1709,
      "max": [
        1.0,
        1.0,
        0.999993622303009
      ],
      "min": [
        -0.9999603629112244,
        -1.0,
        -0.999993622303009
      ],
      "type": "VEC3"
    },
    {
      "bufferView": 179,
      "componentType": 5126,
      "count": 1709,
      "max": [
        0.6454391479492188,
        0.9921875596046448
      ],
      "min": [
        0.5221399664878845,
        0.9143124222755432
      ],
      "type": "VEC2"
    },
    {
      "bufferView": 180,
      "componentType": 5125,
      "count": 3924,
      "max": [
        835
      ],
      "min": [
        0
      ],
      "type": "SCALAR"
    },
    {
      "bufferView": 181,
      "componentType": 5125,
      "count": 4368,
      "max": [
        1708
      ],
      "min": [
        836
      ],
      "type": "SCALAR"
    },
    {
      "bufferView": 182,
      "componentType": 5126,
      "count": 1709,
      "max": [
        1.0,
        0.3228607177734375,
        1.000030517578125
      ],
      "min": [
        -1.0000076293945313,
        -7.62939453125e-06,
        -0.999969482421875
      ],
      "type": "VEC3"
    },
    {
      "bufferView": 183,
      "componentType": 5126,
      "count": 1709,
      "max": [
        1.0,
        1.0,
        0.999993622303009
      ],
      "min": [
        -0.9999603629112244,
        -1.0,
        -0.999993622303009
      ],
      "type": "VEC3"
    },
    {
      "bufferView": 184,
      "componentType": 5126,
      "count": 1709,
      "max": [
        0.6454391479492188,
        0.9921875596046448
      ],
      "min": [
        0.5221399664878845,
        0.9143124222755432
      ],
      "type": "VEC2"
    },
    {
      "bufferView": 185,
      "componentType": 5125,
      "count": 3924,
      "max": [
        835
      ],
      "min": [
        0
      ],
      "type": "SCALAR"
    },
    {
      "bufferView": 186,
      "componentType": 5125,
      "count": 4368,
      "max": [
        1708
      ],
      "min": [
        836
      ],
      "type": "SCALAR"
    },
    {
      "bufferView": 187,
      "componentType": 5126,
      "count": 1709,
      "max": [
        1.0,
        0.3228607177734375,
        1.00006103515625
      ],
      "min": [
        -1.0,
        -7.62939453125e-06,
        -0.999969482421875
      ],
      "type": "VEC3"
    },
    {
      "bufferView": 188,
      "componentType": 5126,
      "count": 1709,
      "max": [
        1.0,
        1.0,
        0.999993622303009
      ],
      "min": [
        -0.9999603629112244,
        -1.0,
        -0.999993622303009
      ],
      "type": "VEC3"
    },
    {
      "bufferView": 189,
      "componentType": 5126,
      "count": 1709,
      "max": [
        0.6454391479492188,
        0.9921875596046448
      ],
      "min": [
        0.5221399664878845,
        0.9143124222755432
      ],
      "type": "VEC2"
    },
    {
      "bufferView": 190,
      "componentType": 5125,
      "count": 1308,
      "max": [
        219
      ],
      "min": [
        0
      ],
      "type": "SCALAR"
    },
    {
      "bufferView": 191,
      "componentType": 5126,
      "count": 220,
      "max": [
        0.9912147521972656,
        0.2993927001953125,
        0.8352737426757813
      ],
      "min": [
        -0.9910888671875,
        0.0143585205078125,
        -1.050140380859375
      ],
      "type": "VEC3"
    },
    {
      "bufferView": 192,
      "componentType": 5126,
      "count": 220,
      "max": [
        0.9348515868186951,
        0.9584275484085083,
        0.8617149591445923
      ],
      "min": [
        -0.9368322491645813,
        -1.0,
        -0.9840753674507141
      ],
      "type": "VEC3"
    },
    {
      "bufferView": 193,
      "componentType": 5126,
      "count": 220,
      "max": [
        0.4924480617046356,
        0.986828625202179
      ],
      "min": [
        0.41989779472351074,
        0.9143126010894775
      ],
      "type": "VEC2"
    },
    {
      "bufferView": 194,
      "componentType": 5125,
      "count": 1308,
      "max": [
        219
      ],
      "min": [
        0
      ],
      "type": "SCALAR"
    },
    {
      "bufferView": 195,
      "componentType": 5126,
      "count": 220,
      "max": [
        0.9912223815917969,
        0.299407958984375,
        0.8352890014648438
      ],
      "min": [
        -0.9910850524902344,
        0.014373779296875,
        -1.0501251220703125
      ],
      "type": "VEC3"
    },
    {
      "bufferView": 196,
      "componentType": 5126,
      "count": 220,
      "max": [
        0.9348515868186951,
        0.9584275484085083,
        0.8617149591445923
      ],
      "min": [
        -0.9368322491645813,
        -1.0,
        -0.9840753674507141
      ],
      "type": "VEC3"
    },
    {
      "bufferView": 197,
      "componentType": 5126,
      "count": 220,
      "max": [
        0.4924480617046356,
        0.986828625202179
      ],
      "min": [
        0.41989779472351074,
        0.9143126010894775
      ],
      "type": "VEC2"
    },
    {
      "bufferView": 198,
      "componentType": 5125,
      "count": 3924,
      "max": [
        835
      ],
      "min": [
        0
      ],
      "type": "SCALAR"
    },
    {
      "bufferView": 199,
      "componentType": 5125,
      "count": 4368,
      "max": [
        1708
      ],
      "min": [
        836
      ],
      "type": "SCALAR"
    },
    {
      "bufferView": 200,
      "componentType": 5126,
      "count": 1709,
      "max": [
        1.0000038146972656,
        0.32286834716796875,
        1.0000152587890625
      ],
      "min": [
        -0.9999980926513672,
        0.0,
        -1.0
      ],
      "type": "VEC3"
    },
    {
      "bufferView": 201,
      "componentType": 5126,
      "count": 1709,
      "max": [
        1.0,
        1.0,
        0.999993622303009
      ],
      "min": [
        -0.9999603629112244,
        -1.0,
        -0.999993622303009
      ],
      "type": "VEC3"
    },
    {
      "bufferView": 202,
      "componentType": 5126,
      "count": 1709,
      "max": [
        0.6454391479492188,
        0.9921875596046448
      ],
      "min": [
        0.5221399664878845,
        0.9143124222755432
      ],
      "type": "VEC2"
    }
  ],
  "asset": {
    "generator": "CLO Standalone 2025.2.132",
    "version": "2.0"
  },
  "bufferViews": [
    {
      "buffer": 0,
      "byteLength": 3672
    },
    {
      "buffer": 0,
      "byteLength": 3672,
      "byteOffset": 3672
    },
    {
      "buffer": 0,
      "byteLength": 25440,
      "byteOffset": 7344
    },
    {
      "buffer": 0,
      "byteLength": 20604,
      "byteOffset": 32784
    },
    {
      "buffer": 0,
      "byteLength": 20604,
      "byteOffset": 53388
    },
    {
      "buffer": 0,
      "byteLength": 13736,
      "byteOffset": 73992
    },
    {
      "buffer": 0,
      "byteLength": 7620,
      "byteOffset": 87728
    },
    {
      "buffer": 0,
      "byteLength": 7620,
      "byteOffset": 95348
    },
    {
      "buffer": 0,
      "byteLength": 25680,
      "byteOffset": 102968
    },
    {
      "buffer": 0,
      "byteLength": 23712,
      "byteOffset": 128648
    },
    {
      "buffer": 0,
      "byteLength": 23712,
      "byteOffset": 152360
    },
    {
      "buffer": 0,
      "byteLength": 15808,
      "byteOffset": 176072
    },
    {
      "buffer": 0,
      "byteLength": 52356,
      "byteOffset": 191880
    },
    {
      "buffer": 0,
      "byteLength": 52356,
      "byteOffset": 244236
    },
    {
      "buffer": 0,
      "byteLength": 64560,
      "byteOffset": 296592
    },
    {
      "buffer": 0,
      "byteLength": 96192,
      "byteOffset": 361152
    },
    {
      "buffer": 0,
      "byteLength": 96192,
      "byteOffset": 457344
    },
    {
      "buffer": 0,
      "byteLength": 64128,
      "byteOffset": 553536
    },
    {
      "buffer": 0,
      "byteLength": 9888,
      "byteOffset": 617664
    },
    {
      "buffer": 0,
      "byteLength": 9888,
      "byteOffset": 627552
    },
    {
      "buffer": 0,
      "byteLength": 34560,
      "byteOffset": 637440
    },
    {
      "buffer": 0,
      "byteLength": 31872,
      "byteOffset": 672000
    },
    {
      "buffer": 0,
      "byteLength": 31872,
      "byteOffset": 703872
    },
    {
      "buffer": 0,
      "byteLength": 21248,
      "byteOffset": 735744
    },
    {
      "buffer": 0,
      "byteLength": 42144,
      "byteOffset": 756992
    },
    {
      "buffer": 0,
      "byteLength": 42144,
      "byteOffset": 799136
    },
    {
      "buffer": 0,
      "byteLength": 62880,
      "byteOffset": 841280
    },
    {
      "buffer": 0,
      "byteLength": 82620,
      "byteOffset": 904160
    },
    {
      "buffer": 0,
      "byteLength": 82620,
      "byteOffset": 986780
    },
    {
      "buffer": 0,
      "byteLength": 55080,
      "byteOffset": 1069400
    },
    {
      "buffer": 0,
      "byteLength": 15120,
      "byteOffset": 1124480
    },
    {
      "buffer": 0,
      "byteLength": 15120,
      "byteOffset": 1139600
    },
    {
      "buffer": 0,
      "byteLength": 31200,
      "byteOffset": 1154720
    },
    {
      "buffer": 0,
      "byteLength": 35112,
      "byteOffset": 1185920
    },
    {
      "buffer": 0,
      "byteLength": 35112,
      "byteOffset": 1221032
    },
    {
      "buffer": 0,
      "byteLength": 23408,
      "byteOffset": 1256144
    },
    {
      "buffer": 0,
      "byteLength": 80808,
      "byteOffset": 1279552
    },
    {
      "buffer": 0,
      "byteLength": 80808,
      "byteOffset": 1360360
    },
    {
      "buffer": 0,
      "byteLength": 56160,
      "byteOffset": 1441168
    },
    {
      "buffer": 0,
      "byteLength": 117744,
      "byteOffset": 1497328
    },
    {
      "buffer": 0,
      "byteLength": 117744,
      "byteOffset": 1615072
    },
    {
      "buffer": 0,
      "byteLength": 78496,
      "byteOffset": 1732816
    },
    {
      "buffer": 0,
      "byteLength": 4368,
      "byteOffset": 1811312
    },
    {
      "buffer": 0,
      "byteLength": 4368,
      "byteOffset": 1815680
    },
    {
      "buffer": 0,
      "byteLength": 11520,
      "byteOffset": 1820048
    },
    {
      "buffer": 0,
      "byteLength": 12552,
      "byteOffset": 1831568
    },
    {
      "buffer": 0,
      "byteLength": 12552,
      "byteOffset": 1844120
    },
    {
      "buffer": 0,
      "byteLength": 8368,
      "byteOffset": 1856672
    },
    {
      "buffer": 0,
      "byteLength": 1620,
      "byteOffset": 1865040
    },
    {
      "buffer": 0,
      "byteLength": 1620,
      "byteOffset": 1866660
    },
    {
      "buffer": 0,
      "byteLength": 8880,
      "byteOffset": 1868280
    },
    {
      "buffer": 0,
      "byteLength": 7632,
      "byteOffset": 1877160
    },
    {
      "buffer": 0,
      "byteLength": 7632,
      "byteOffset": 1884792
    },
    {
      "buffer": 0,
      "byteLength": 5088,
      "byteOffset": 1892424
    },
    {
      "buffer": 0,
      "byteLength": 4368,
      "byteOffset": 1897512
    },
    {
      "buffer": 0,
      "byteLength": 4368,
      "byteOffset": 1901880
    },
    {
      "buffer": 0,
      "byteLength": 11520,
      "byteOffset": 1906248
    },
    {
      "buffer": 0,
      "byteLength": 12552,
      "byteOffset": 1917768
    },
    {
      "buffer": 0,
      "byteLength": 12552,
      "byteOffset": 1930320
    },
    {
      "buffer": 0,
      "byteLength": 8368,
      "byteOffset": 1942872
    },
    {
      "buffer": 0,
      "byteLength": 2340,
      "byteOffset": 1951240
    },
    {
      "buffer": 0,
      "byteLength": 2340,
      "byteOffset": 1953580
    },
    {
      "buffer": 0,
      "byteLength": 8400,
      "byteOffset": 1955920
    },
    {
      "buffer": 0,
      "byteLength": 8412,
      "byteOffset": 1964320
    },
    {
      "buffer": 0,
      "byteLength": 8412,
      "byteOffset": 1972732
    },
    {
      "buffer": 0,
      "byteLength": 5608,
      "byteOffset": 1981144
    },
    {
      "buffer": 0,
      "byteLength": 2460,
      "byteOffset": 1986752
    },
    {
      "buffer": 0,
      "byteLength": 2460,
      "byteOffset": 1989212
    },
    {
      "buffer": 0,
      "byteLength": 8400,
      "byteOffset": 1991672
    },
    {
      "buffer": 0,
      "byteLength": 8532,
      "byteOffset": 2000072
    },
    {
      "buffer": 0,
      "byteLength": 8532,
      "byteOffset": 2008604
    },
    {
      "buffer": 0,
      "byteLength": 5688,
      "byteOffset": 2017136
    },
    {
      "buffer": 0,
      "byteLength": 1056,
      "byteOffset": 2022824
    },
    {
      "buffer": 0,
      "byteLength": 1056,
      "byteOffset": 2023880
    },
    {
      "buffer": 0,
      "byteLength": 7200,
      "byteOffset": 2024936
    },
    {
      "buffer": 0,
      "byteLength": 5928,
      "byteOffset": 2032136
    },
    {
      "buffer": 0,
      "byteLength": 5928,
      "byteOffset": 2038064
    },
    {
      "buffer": 0,
      "byteLength": 3952,
      "byteOffset": 2043992
    },
    {
      "buffer": 0,
      "byteLength": 1056,
      "byteOffset": 2047944
    },
    {
      "buffer": 0,
      "byteLength": 1056,
      "byteOffset": 2049000
    },
    {
      "buffer": 0,
      "byteLength": 7200,
      "byteOffset": 2050056
    },
    {
      "buffer": 0,
      "byteLength": 5928,
      "byteOffset": 2057256
    },
    {
      "buffer": 0,
      "byteLength": 5928,
      "byteOffset": 2063184
    },
    {
      "buffer": 0,
      "byteLength": 3952,
      "byteOffset": 2069112
    },
    {
      "buffer": 0,
      "byteLength": 1620,
      "byteOffset": 2073064
    },
    {
      "buffer": 0,
      "byteLength": 1620,
      "byteOffset": 2074684
    },
    {
      "buffer": 0,
      "byteLength": 8880,
      "byteOffset": 2076304
    },
    {
      "buffer": 0,
      "byteLength": 7632,
      "byteOffset": 2085184
    },
    {
      "buffer": 0,
      "byteLength": 7632,
      "byteOffset": 2092816
    },
    {
      "buffer": 0,
      "byteLength": 5088,
      "byteOffset": 2100448
    },
    {
      "buffer": 0,
      "byteLength": 1680,
      "byteOffset": 2105536
    },
    {
      "buffer": 0,
      "byteLength": 1680,
      "byteOffset": 2107216
    },
    {
      "buffer": 0,
      "byteLength": 8160,
      "byteOffset": 2108896
    },
    {
      "buffer": 0,
      "byteLength": 7128,
      "byteOffset": 2117056
    },
    {
      "buffer": 0,
      "byteLength": 7128,
      "byteOffset": 2124184
    },
    {
      "buffer": 0,
      "byteLength": 4752,
      "byteOffset": 2131312
    },
    {
      "buffer": 0,
      "byteLength": 1680,
      "byteOffset": 2136064
    },
    {
      "buffer": 0,
      "byteLength": 1680,
      "byteOffset": 2137744
    },
    {
      "buffer": 0,
      "byteLength": 8160,
      "byteOffset": 2139424
    },
    {
      "buffer": 0,
      "byteLength": 7128,
      "byteOffset": 2147584
    },
    {
      "buffer": 0,
      "byteLength": 7128,
      "byteOffset": 2154712
    },
    {
      "buffer": 0,
      "byteLength": 4752,
      "byteOffset": 2161840
    },
    {
      "buffer": 0,
      "byteLength": 336,
      "byteOffset": 2166592
    },
    {
      "buffer": 0,
      "byteLength": 336,
      "byteOffset": 2166928
    },
    {
      "buffer": 0,
      "byteLength": 4320,
      "byteOffset": 2167264
    },
    {
      "buffer": 0,
      "byteLength": 3480,
      "byteOffset": 2171584
    },
    {
      "buffer": 0,
      "byteLength": 3480,
      "byteOffset": 2175064
    },
    {
      "buffer": 0,
      "byteLength": 2320,
      "byteOffset": 2178544
    },
    {
      "buffer": 0,
      "byteLength": 336,
      "byteOffset": 2180864
    },
    {
      "buffer": 0,
      "byteLength": 336,
      "byteOffset": 2181200
    },
    {
      "buffer": 0,
      "byteLength": 4320,
      "byteOffset": 2181536
    },
    {
      "buffer": 0,
      "byteLength": 3480,
      "byteOffset": 2185856
    },
    {
      "buffer": 0,
      "byteLength": 3480,
      "byteOffset": 2189336
    },
    {
      "buffer": 0,
      "byteLength": 2320,
      "byteOffset": 2192816
    },
    {
      "buffer": 0,
      "byteLength": 1008,
      "byteOffset": 2195136
    },
    {
      "buffer": 0,
      "byteLength": 1008,
      "byteOffset": 2196144
    },
    {
      "buffer": 0,
      "byteLength": 6240,
      "byteOffset": 2197152
    },
    {
      "buffer": 0,
      "byteLength": 5304,
      "byteOffset": 2203392
    },
    {
      "buffer": 0,
      "byteLength": 5304,
      "byteOffset": 2208696
    },
    {
      "buffer": 0,
      "byteLength": 3536,
      "byteOffset": 2214000
    },
    {
      "buffer": 0,
      "byteLength": 1008,
      "byteOffset": 2217536
    },
    {
      "buffer": 0,
      "byteLength": 1008,
      "byteOffset": 2218544
    },
    {
      "buffer": 0,
      "byteLength": 6240,
      "byteOffset": 2219552
    },
    {
      "buffer": 0,
      "byteLength": 5304,
      "byteOffset": 2225792
    },
    {
      "buffer": 0,
      "byteLength": 5304,
      "byteOffset": 2231096
    },
    {
      "buffer": 0,
      "byteLength": 3536,
      "byteOffset": 2236400
    },
    {
      "buffer": 0,
      "byteLength": 336,
      "byteOffset": 2239936
    },
    {
      "buffer": 0,
      "byteLength": 336,
      "byteOffset": 2240272
    },
    {
      "buffer": 0,
      "byteLength": 4320,
      "byteOffset": 2240608
    },
    {
      "buffer": 0,
      "byteLength": 3480,
      "byteOffset": 2244928
    },
    {
      "buffer": 0,
      "byteLength": 3480,
      "byteOffset": 2248408
    },
    {
      "buffer": 0,
      "byteLength": 2320,
      "byteOffset": 2251888
    },
    {
      "buffer": 0,
      "byteLength": 336,
      "byteOffset": 2254208
    },
    {
      "buffer": 0,
      "byteLength": 336,
      "byteOffset": 2254544
    },
    {
      "buffer": 0,
      "byteLength": 4320,
      "byteOffset": 2254880
    },
    {
      "buffer": 0,
      "byteLength": 3480,
      "byteOffset": 2259200
    },
    {
      "buffer": 0,
      "byteLength": 3480,
      "byteOffset": 2262680
    },
    {
      "buffer": 0,
      "byteLength": 2320,
      "byteOffset": 2266160
    },
    {
      "buffer": 0,
      "byteLength": 15852,
      "byteOffset": 2268480
    },
    {
      "buffer": 0,
      "byteLength": 15852,
      "byteOffset": 2284332
    },
    {
      "buffer": 0,
      "byteLength": 26640,
      "byteOffset": 2300184
    },
    {
      "buffer": 0,
      "byteLength": 33768,
      "byteOffset": 2326824
    },
    {
      "buffer": 0,
      "byteLength": 33768,
      "byteOffset": 2360592
    },
    {
      "buffer": 0,
      "byteLength": 22512,
      "byteOffset": 2394360
    },
    {
      "buffer": 0,
      "byteLength": 15852,
      "byteOffset": 2416872
    },
    {
      "buffer": 0,
      "byteLength": 15852,
      "byteOffset": 2432724
    },
    {
      "buffer": 0,
      "byteLength": 26640,
      "byteOffset": 2448576
    },
    {
      "buffer": 0,
      "byteLength": 33768,
      "byteOffset": 2475216
    },
    {
      "buffer": 0,
      "byteLength": 33768,
      "byteOffset": 2508984
    },
    {
      "buffer": 0,
      "byteLength": 22512,
      "byteOffset": 2542752
    },
    {
      "buffer": 0,
      "byteLength": 15696,
      "byteOffset": 2565264
    },
    {
      "buffer": 0,
      "byteLength": 17472,
      "byteOffset": 2580960
    },
    {
      "buffer": 0,
      "byteLength": 20508,
      "byteOffset": 2598432
    },
    {
      "buffer": 0,
      "byteLength": 20508,
      "byteOffset": 2618940
    },
    {
      "buffer": 0,
      "byteLength": 13672,
      "byteOffset": 2639448
    },
    {
      "buffer": 0,
      "byteLength": 15696,
      "byteOffset": 2653120
    },
    {
      "buffer": 0,
      "byteLength": 17472,
      "byteOffset": 2668816
    },
    {
      "buffer": 0,
      "byteLength": 20508,
      "byteOffset": 2686288
    },
    {
      "buffer": 0,
      "byteLength": 20508,
      "byteOffset": 2706796
    },
    {
      "buffer": 0,
      "byteLength": 13672,
      "byteOffset": 2727304
    },
    {
      "buffer": 0,
      "byteLength": 15696,
      "byteOffset": 2740976
    },
    {
      "buffer": 0,
      "byteLength": 17472,
      "byteOffset": 2756672
    },
    {
      "buffer": 0,
      "byteLength": 20508,
      "byteOffset": 2774144
    },
    {
      "buffer": 0,
      "byteLength": 20508,
      "byteOffset": 2794652
    },
    {
      "buffer": 0,
      "byteLength": 13672,
      "byteOffset": 2815160
    },
    {
      "buffer": 0,
      "byteLength": 15696,
      "byteOffset": 2828832
    },
    {
      "buffer": 0,
      "byteLength": 17472,
      "byteOffset": 2844528
    },
    {
      "buffer": 0,
      "byteLength": 20508,
      "byteOffset": 2862000
    },
    {
      "buffer": 0,
      "byteLength": 20508,
      "byteOffset": 2882508
    },
    {
      "buffer": 0,
      "byteLength": 13672,
      "byteOffset": 2903016
    },
    {
      "buffer": 0,
      "byteLength": 15696,
      "byteOffset": 2916688
    },
    {
      "buffer": 0,
      "byteLength": 17472,
      "byteOffset": 2932384
    },
    {
      "buffer": 0,
      "byteLength": 20508,
      "byteOffset": 2949856
    },
    {
      "buffer": 0,
      "byteLength": 20508,
      "byteOffset": 2970364
    },
    {
      "buffer": 0,
      "byteLength": 13672,
      "byteOffset": 2990872
    },
    {
      "buffer": 0,
      "byteLength": 15696,
      "byteOffset": 3004544
    },
    {
      "buffer": 0,
      "byteLength": 17472,
      "byteOffset": 3020240
    },
    {
      "buffer": 0,
      "byteLength": 20508,
      "byteOffset": 3037712
    },
    {
      "buffer": 0,
      "byteLength": 20508,
      "byteOffset": 3058220
    },
    {
      "buffer": 0,
      "byteLength": 13672,
      "byteOffset": 3078728
    },
    {
      "buffer": 0,
      "byteLength": 15696,
      "byteOffset": 3092400
    },
    {
      "buffer": 0,
      "byteLength": 17472,
      "byteOffset": 3108096
    },
    {
      "buffer": 0,
      "byteLength": 20508,
      "byteOffset": 3125568
    },
    {
      "buffer": 0,
      "byteLength": 20508,
      "byteOffset": 3146076
    },
    {
      "buffer": 0,
      "byteLength": 13672,
      "byteOffset": 3166584
    },
    {
      "buffer": 0,
      "byteLength": 15696,
      "byteOffset": 3180256
    },
    {
      "buffer": 0,
      "byteLength": 17472,
      "byteOffset": 3195952
    },
    {
      "buffer": 0,
      "byteLength": 20508,
      "byteOffset": 3213424
    },
    {
      "buffer": 0,
      "byteLength": 20508,
      "byteOffset": 3233932
    },
    {
      "buffer": 0,
      "byteLength": 13672,
      "byteOffset": 3254440
    },
    {
      "buffer": 0,
      "byteLength": 5232,
      "byteOffset": 3268112
    },
    {
      "buffer": 0,
      "byteLength": 2640,
      "byteOffset": 3273344
    },
    {
      "buffer": 0,
      "byteLength": 2640,
      "byteOffset": 3275984
    },
    {
      "buffer": 0,
      "byteLength": 1760,
      "byteOffset": 3278624
    },
    {
      "buffer": 0,
      "byteLength": 5232,
      "byteOffset": 3280384
    },
    {
      "buffer": 0,
      "byteLength": 2640,
      "byteOffset": 3285616
    },
    {
      "buffer": 0,
      "byteLength": 2640,
      "byteOffset": 3288256
    },
    {
      "buffer": 0,
      "byteLength": 1760,
      "byteOffset": 3290896
    },
    {
      "buffer": 0,
      "byteLength": 15696,
      "byteOffset": 3292656
    },
    {
      "buffer": 0,
      "byteLength": 17472,
      "byteOffset": 3308352
    },
    {
      "buffer": 0,
      "byteLength": 20508,
      "byteOffset": 3325824
    },
    {
      "buffer": 0,
      "byteLength": 20508,
      "byteOffset": 3346332
    },
    {
      "buffer": 0,
      "byteLength": 13672,
      "byteOffset": 3366840
    }
  ],
  "buffers": [
    {
      "byteLength": 3380512,
      "uri": "Police Sh Sleeve Shirt_gltf_thick.bin"
    }
  ],
  "extensionsUsed": [
    "KHR_materials_specular"
  ],
  "images": [
    {
      "uri": "Police Sh Sleeve Shirt_gltf_thick_diffuse_1001.png"
    },
    {
      "uri": "Police Sh Sleeve Shirt_gltf_thick_normal_1001.png"
    },
    {
      "uri": "Police Sh Sleeve Shirt_gltf_thick_metallicroughness_1001.png"
    }
  ],
  "materials": [
    {
      "extensions": {
        "KHR_materials_specular": {
          "specularFactor": 0.15000000596046448
        }
      },
      "name": "Cotton_Oxford_2504",
      "normalTexture": {
        "index": 1
      },
      "pbrMetallicRoughness": {
        "baseColorTexture": {
          "index": 0
        },
        "metallicRoughnessTexture": {
          "index": 2
        }
      }
    },
    {
      "extensions": {
        "KHR_materials_specular": {
          "specularFactor": 0.4000000059604645
        }
      },
      "name": "FABRIC 1_2511",
      "normalTexture": {
        "index": 1
      },
      "pbrMetallicRoughness": {
        "baseColorTexture": {
          "index": 0
        },
        "metallicRoughnessTexture": {
          "index": 2
        }
      }
    },
    {
      "extensions": {
        "KHR_materials_specular": {
          "specularFactor": 0.800000011920929
        }
      },
      "name": "Button 1_2515",
      "normalTexture": {
        "index": 1
      },
      "pbrMetallicRoughness": {
        "baseColorTexture": {
          "index": 0
        },
        "metallicRoughnessTexture": {
          "index": 2
        }
      }
    },
    {
      "name": "Default Button_2513",
      "normalTexture": {
        "index": 1
      },
      "pbrMetallicRoughness": {
        "baseColorTexture": {
          "index": 0
        },
        "metallicRoughnessTexture": {
          "index": 2
        }
      }
    }
  ],
  "meshes": [
    {
      "name": "Cloth_mesh",
      "primitives": [
        {
          "attributes": {
            "NORMAL": 4,
            "POSITION": 3,
            "TEXCOORD_0": 5
          },
          "indices": 0,
          "material": 0
        },
        {
          "attributes": {
            "NORMAL": 4,
            "POSITION": 3,
            "TEXCOORD_0": 5
          },
          "indices": 1,
          "material": 0
        },
        {
          "attributes": {
            "NORMAL": 4,
            "POSITION": 3,
            "TEXCOORD_0": 5
          },
          "indices": 2,
          "material": 0
        },
        {
          "attributes": {
            "NORMAL": 10,
            "POSITION": 9,
            "TEXCOORD_0": 11
          },
          "indices": 6,
          "material": 0
        },
        {
          "attributes": {
            "NORMAL": 10,
            "POSITION": 9,
            "TEXCOORD_0": 11
          },
          "indices": 7,
          "material": 0
        },
        {
          "attributes": {
            "NORMAL": 10,
            "POSITION": 9,
            "TEXCOORD_0": 11
          },
          "indices": 8,
          "material": 0
        },
        {
          "attributes": {
            "NORMAL": 16,
            "POSITION": 15,
            "TEXCOORD_0": 17
          },
          "indices": 12,
          "material": 0
        },
        {
          "attributes": {
            "NORMAL": 16,
            "POSITION": 15,
            "TEXCOORD_0": 17
          },
          "indices": 13,
          "material": 0
        },
        {
          "attributes": {
            "NORMAL": 16,
            "POSITION": 15,
            "TEXCOORD_0": 17
          },
          "indices": 14,
          "material": 0
        },
        {
          "attributes": {
            "NORMAL": 22,
            "POSITION": 21,
            "TEXCOORD_0": 23
          },
          "indices": 18,
          "material": 0
        },
        {
          "attributes": {
            "NORMAL": 22,
            "POSITION": 21,
            "TEXCOORD_0": 23
          },
          "indices": 19,
          "material": 0
        },
        {
          "attributes": {
            "NORMAL": 22,
            "POSITION": 21,
            "TEXCOORD_0": 23
          },
          "indices": 20,
          "material": 0
        },
        {
          "attributes": {
            "NORMAL": 28,
            "POSITION": 27,
            "TEXCOORD_0": 29
          },
          "indices": 24,
          "material": 0
        },
        {
          "attributes": {
            "NORMAL": 28,
            "POSITION": 27,
            "TEXCOORD_0": 29
          },
          "indices": 25,
          "material": 0
        },
        {
          "attributes": {
            "NORMAL": 28,
            "POSITION": 27,
            "TEXCOORD_0": 29
          },
          "indices": 26,
          "material": 0
        },
        {
          "attributes": {
            "NORMAL": 34,
            "POSITION": 33,
            "TEXCOORD_0": 35
          },
          "indices": 30,
          "material": 0
        },
        {
          "attributes": {
            "NORMAL": 34,
            "POSITION": 33,
            "TEXCOORD_0": 35
          },
          "indices": 31,
          "material": 0
        },
        {
          "attributes": {
            "NORMAL": 34,
            "POSITION": 33,
            "TEXCOORD_0": 35
          },
          "indices": 32,
          "material": 0
        },
        {
          "attributes": {
            "NORMAL": 40,
            "POSITION": 39,
            "TEXCOORD_0": 41
          },
          "indices": 36,
          "material": 0
        },
        {
          "attributes": {
            "NORMAL": 40,
            "POSITION": 39,
            "TEXCOORD_0": 41
          },
          "indices": 37,
          "material": 0
        },
        {
          "attributes": {
            "NORMAL": 40,
            "POSITION": 39,
            "TEXCOORD_0": 41
          },
          "indices": 38,
          "material": 0
        },
        {
          "attributes": {
            "NORMAL": 46,
            "POSITION": 45,
            "TEXCOORD_0": 47
          },
          "indices": 42,
          "material": 0
        },
        {
          "attributes": {
            "NORMAL": 46,
            "POSITION": 45,
            "TEXCOORD_0": 47
          },
          "indices": 43,
          "material": 0
        },
        {
          "attributes": {
            "NORMAL": 46,
            "POSITION": 45,
            "TEXCOORD_0": 47
          },
          "indices": 44,
          "material": 0
        },
        {
          "attributes": {
            "NORMAL": 52,
            "POSITION": 51,
            "TEXCOORD_0": 53
          },
          "indices": 48,
          "material": 0
        },
        {
          "attributes": {
            "NORMAL": 52,
            "POSITION": 51,
            "TEXCOORD_0": 53
          },
          "indices": 49,
          "material": 0
        },
        {
          "attributes": {
            "NORMAL": 52,
            "POSITION": 51,
            "TEXCOORD_0": 53
          },
          "indices": 50,
          "material": 0
        },
        {
          "attributes": {
            "NORMAL": 58,
            "POSITION": 57,
            "TEXCOORD_0": 59
          },
          "indices": 54,
          "material": 0
        },
        {
          "attributes": {
            "NORMAL": 58,
            "POSITION": 57,
            "TEXCOORD_0": 59
          },
          "indices": 55,
          "material": 0
        },
        {
          "attributes": {
            "NORMAL": 58,
            "POSITION": 57,
            "TEXCOORD_0": 59
          },
          "indices": 56,
          "material": 0
        },
        {
          "attributes": {
            "NORMAL": 64,
            "POSITION": 63,
            "TEXCOORD_0": 65
          },
          "indices": 60,
          "material": 0
        },
        {
          "attributes": {
            "NORMAL": 64,
            "POSITION": 63,
            "TEXCOORD_0": 65
          },
          "indices": 61,
          "material": 0
        },
        {
          "attributes": {
            "NORMAL": 64,
            "POSITION": 63,
            "TEXCOORD_0": 65
          },
          "indices": 62,
          "material": 0
        },
        {
          "attributes": {
            "NORMAL": 70,
            "POSITION": 69,
            "TEXCOORD_0": 71
          },
          "indices": 66,
          "material": 0
        },
        {
          "attributes": {
            "NORMAL": 70,
            "POSITION": 69,
            "TEXCOORD_0": 71
          },
          "indices": 67,
          "material": 0
        },
        {
          "attributes": {
            "NORMAL": 70,
            "POSITION": 69,
            "TEXCOORD_0": 71
          },
          "indices": 68,
          "material": 0
        },
        {
          "attributes": {
            "NORMAL": 76,
            "POSITION": 75,
            "TEXCOORD_0": 77
          },
          "indices": 72,
          "material": 0
        },
        {
          "attributes": {
            "NORMAL": 76,
            "POSITION": 75,
            "TEXCOORD_0": 77
          },
          "indices": 73,
          "material": 0
        },
        {
          "attributes": {
            "NORMAL": 76,
            "POSITION": 75,
            "TEXCOORD_0": 77
          },
          "indices": 74,
          "material": 0
        },
        {
          "attributes": {
            "NORMAL": 82,
            "POSITION": 81,
            "TEXCOORD_0": 83
          },
          "indices": 78,
          "material": 0
        },
        {
          "attributes": {
            "NORMAL": 82,
            "POSITION": 81,
            "TEXCOORD_0": 83
          },
          "indices": 79,
          "material": 0
        },
        {
          "attributes": {
            "NORMAL": 82,
            "POSITION": 81,
            "TEXCOORD_0": 83
          },
          "indices": 80,
          "material": 0
        },
        {
          "attributes": {
            "NORMAL": 88,
            "POSITION": 87,
            "TEXCOORD_0": 89
          },
          "indices": 84,
          "material": 0
        },
        {
          "attributes": {
            "NORMAL": 88,
            "POSITION": 87,
            "TEXCOORD_0": 89
          },
          "indices": 85,
          "material": 0
        },
        {
          "attributes": {
            "NORMAL": 88,
            "POSITION": 87,
            "TEXCOORD_0": 89
          },
          "indices": 86,
          "material": 0
        },
        {
          "attributes": {
            "NORMAL": 94,
            "POSITION": 93,
            "TEXCOORD_0": 95
          },
          "indices": 90,
          "material": 0
        },
        {
          "attributes": {
            "NORMAL": 94,
            "POSITION": 93,
            "TEXCOORD_0": 95
          },
          "indices": 91,
          "material": 0
        },
        {
          "attributes": {
            "NORMAL": 94,
            "POSITION": 93,
            "TEXCOORD_0": 95
          },
          "indices": 92,
          "material": 0
        },
        {
          "attributes": {
            "NORMAL": 100,
            "POSITION": 99,
            "TEXCOORD_0": 101
          },
          "indices": 96,
          "material": 0
        },
        {
          "attributes": {
            "NORMAL": 100,
            "POSITION": 99,
            "TEXCOORD_0": 101
          },
          "indices": 97,
          "material": 0
        },
        {
          "attributes": {
            "NORMAL": 100,
            "POSITION": 99,
            "TEXCOORD_0": 101
          },
          "indices": 98,
          "material": 0
        },
        {
          "attributes": {
            "NORMAL": 106,
            "POSITION": 105,
            "TEXCOORD_0": 107
          },
          "indices": 102,
          "material": 0
        },
        {
          "attributes": {
            "NORMAL": 106,
            "POSITION": 105,
            "TEXCOORD_0": 107
          },
          "indices": 103,
          "material": 0
        },
        {
          "attributes": {
            "NORMAL": 106,
            "POSITION": 105,
            "TEXCOORD_0": 107
          },
          "indices": 104,
          "material": 0
        },
        {
          "attributes": {
            "NORMAL": 112,
            "POSITION": 111,
            "TEXCOORD_0": 113
          },
          "indices": 108,
          "material": 1
        },
        {
          "attributes": {
            "NORMAL": 112,
            "POSITION": 111,
            "TEXCOORD_0": 113
          },
          "indices": 109,
          "material": 1
        },
        {
          "attributes": {
            "NORMAL": 112,
            "POSITION": 111,
            "TEXCOORD_0": 113
          },
          "indices": 110,
          "material": 1
        },
        {
          "attributes": {
            "NORMAL": 118,
            "POSITION": 117,
            "TEXCOORD_0": 119
          },
          "indices": 114,
          "material": 0
        },
        {
          "attributes": {
            "NORMAL": 118,
            "POSITION": 117,
            "TEXCOORD_0": 119
          },
          "indices": 115,
          "material": 0
        },
        {
          "attributes": {
            "NORMAL": 118,
            "POSITION": 117,
            "TEXCOORD_0": 119
          },
          "indices": 116,
          "material": 0
        },
        {
          "attributes": {
            "NORMAL": 124,
            "POSITION": 123,
            "TEXCOORD_0": 125
          },
          "indices": 120,
          "material": 0
        },
        {
          "attributes": {
            "NORMAL": 124,
            "POSITION": 123,
            "TEXCOORD_0": 125
          },
          "indices": 121,
          "material": 0
        },
        {
          "attributes": {
            "NORMAL": 124,
            "POSITION": 123,
            "TEXCOORD_0": 125
          },
          "indices": 122,
          "material": 0
        },
        {
          "attributes": {
            "NORMAL": 130,
            "POSITION": 129,
            "TEXCOORD_0": 131
          },
          "indices": 126,
          "material": 1
        },
        {
          "attributes": {
            "NORMAL": 130,
            "POSITION": 129,
            "TEXCOORD_0": 131
          },
          "indices": 127,
          "material": 1
        },
        {
          "attributes": {
            "NORMAL": 130,
            "POSITION": 129,
            "TEXCOORD_0": 131
          },
          "indices": 128,
          "material": 1
        },
        {
          "attributes": {
            "NORMAL": 136,
            "POSITION": 135,
            "TEXCOORD_0": 137
          },
          "indices": 132,
          "material": 0
        },
        {
          "attributes": {
            "NORMAL": 136,
            "POSITION": 135,
            "TEXCOORD_0": 137
          },
          "indices": 133,
          "material": 0
        },
        {
          "attributes": {
            "NORMAL": 136,
            "POSITION": 135,
            "TEXCOORD_0": 137
          },
          "indices": 134,
          "material": 0
        },
        {
          "attributes": {
            "NORMAL": 142,
            "POSITION": 141,
            "TEXCOORD_0": 143
          },
          "indices": 138,
          "material": 0
        },
        {
          "attributes": {
            "NORMAL": 142,
            "POSITION": 141,
            "TEXCOORD_0": 143
          },
          "indices": 139,
          "material": 0
        },
        {
          "attributes": {
            "NORMAL": 142,
            "POSITION": 141,
            "TEXCOORD_0": 143
          },
          "indices": 140,
          "material": 0
        },
        {
          "attributes": {
            "NORMAL": 148,
            "POSITION": 147,
            "TEXCOORD_0": 149
          },
          "indices": 144,
          "material": 0
        },
        {
          "attributes": {
            "NORMAL": 148,
            "POSITION": 147,
            "TEXCOORD_0": 149
          },
          "indices": 145,
          "material": 0
        },
        {
          "attributes": {
            "NORMAL": 148,
            "POSITION": 147,
            "TEXCOORD_0": 149
          },
          "indices": 146,
          "material": 0
        }
      ]
    },
    {
      "name": "ButtonHead_1131589",
      "primitives": [
        {
          "attributes": {
            "NORMAL": 153,
            "POSITION": 152,
            "TEXCOORD_0": 154
          },
          "indices": 150,
          "material": 2
        },
        {
          "attributes": {
            "NORMAL": 153,
            "POSITION": 152,
            "TEXCOORD_0": 154
          },
          "indices": 151,
          "material": 2
        }
      ]
    },
    {
      "name": "ButtonHead_1131598",
      "primitives": [
        {
          "attributes": {
            "NORMAL": 158,
            "POSITION": 157,
            "TEXCOORD_0": 159
          },
          "indices": 155,
          "material": 2
        },
        {
          "attributes": {
            "NORMAL": 158,
            "POSITION": 157,
            "TEXCOORD_0": 159
          },
          "indices": 156,
          "material": 2
        }
      ]
    },
    {
      "name": "ButtonHead_1131607",
      "primitives": [
        {
          "attributes": {
            "NORMAL": 163,
            "POSITION": 162,
            "TEXCOORD_0": 164
          },
          "indices": 160,
          "material": 2
        },
        {
          "attributes": {
            "NORMAL": 163,
            "POSITION": 162,
            "TEXCOORD_0": 164
          },
          "indices": 161,
          "material": 2
        }
      ]
    },
    {
      "name": "ButtonHead_1131616",
      "primitives": [
        {
          "attributes": {
            "NORMAL": 168,
            "POSITION": 167,
            "TEXCOORD_0": 169
          },
          "indices": 165,
          "material": 2
        },
        {
          "attributes": {
            "NORMAL": 168,
            "POSITION": 167,
            "TEXCOORD_0": 169
          },
          "indices": 166,
          "material": 2
        }
      ]
    },
    {
      "name": "ButtonHead_1131580",
      "primitives": [
        {
          "attributes": {
            "NORMAL": 173,
            "POSITION": 172,
            "TEXCOORD_0": 174
          },
          "indices": 170,
          "material": 2
        },
        {
          "attributes": {
            "NORMAL": 173,
            "POSITION": 172,
            "TEXCOORD_0": 174
          },
          "indices": 171,
          "material": 2
        }
      ]
    },
    {
      "name": "ButtonHead_1131571",
      "primitives": [
        {
          "attributes": {
            "NORMAL": 178,
            "POSITION": 177,
            "TEXCOORD_0": 179
          },
          "indices": 175,
          "material": 2
        },
        {
          "attributes": {
            "NORMAL": 178,
            "POSITION": 177,
            "TEXCOORD_0": 179
          },
          "indices": 176,
          "material": 2
        }
      ]
    },
    {
      "name": "ButtonHead_772730",
      "primitives": [
        {
          "attributes": {
            "NORMAL": 183,
            "POSITION": 182,
            "TEXCOORD_0": 184
          },
          "indices": 180,
          "material": 2
        },
        {
          "attributes": {
            "NORMAL": 183,
            "POSITION": 182,
            "TEXCOORD_0": 184
          },
          "indices": 181,
          "material": 2
        }
      ]
    },
    {
      "name": "ButtonHead_185495",
      "primitives": [
        {
          "attributes": {
            "NORMAL": 188,
            "POSITION": 187,
            "TEXCOORD_0": 189
          },
          "indices": 185,
          "material": 2
        },
        {
          "attributes": {
            "NORMAL": 188,
            "POSITION": 187,
            "TEXCOORD_0": 189
          },
          "indices": 186,
          "material": 2
        }
      ]
    },
    {
      "name": "ButtonHead_659070",
      "primitives": [
        {
          "attributes": {
            "NORMAL": 192,
            "POSITION": 191,
            "TEXCOORD_0": 193
          },
          "indices": 190,
          "material": 3
        }
      ]
    },
    {
      "name": "ButtonHead_741941",
      "primitives": [
        {
          "attributes": {
            "NORMAL": 196,
            "POSITION": 195,
            "TEXCOORD_0": 197
          },
          "indices": 194,
          "material": 3
        }
      ]
    },
    {
      "name": "ButtonHead_1078900",
      "primitives": [
        {
          "attributes": {
            "NORMAL": 201,
            "POSITION": 200,
            "TEXCOORD_0": 202
          },
          "indices": 198,
          "material": 2
        },
        {
          "attributes": {
            "NORMAL": 201,
            "POSITION": 200,
            "TEXCOORD_0": 202
          },
          "indices": 199,
          "material": 2
        }
      ]
    }
  ],
  "nodes": [
    {
      "children": [
        1
      ],
      "name": "Police Sh Sleeve Shirt_gltf_thick_Scene_Node"
    },
    {
      "children": [
        2,
        3,
        4,
        5,
        6,
        7,
        8,
        9,
        10,
        11,
        12
      ],
      "mesh": 0,
      "name": "Cloth"
    },
    {
      "mesh": 1,
      "rotation": [
        0.6539091467857361,
        -0.06451587378978729,
        0.05977393686771393,
        0.7514436841011047
      ],
      "scale": [
        0.5,
        1.0,
        0.5
      ],
      "translation": [
        -0.7411019802093506,
        106.58526611328125,
        13.793807029724121
      ]
    },
    {
      "mesh": 2,
      "rotation": [
        0.6327992677688599,
        0.08406013995409012,
        -0.041479017585515976,
        0.7686211466789246
      ],
      "scale": [
        0.5,
        0.9999999403953552,
        0.5
      ],
      "translation": [
        -0.6677903532981873,
        116.86502838134766,
        13.128132820129395
      ]
    },
    {
      "mesh": 3,
      "rotation": [
        0.4445555806159973,
        0.040458835661411285,
        -0.1336880624294281,
        0.884794294834137
      ],
      "scale": [
        0.4999999403953552,
        0.9999999403953552,
        0.4999999701976776
      ],
      "translation": [
        -0.3706636428833008,
        157.1862335205078,
        6.645668983459473
      ]
    },
    {
      "mesh": 4,
      "rotation": [
        0.533594012260437,
        0.09524200111627579,
        -0.07138848304748535,
        0.8373231887817383
      ],
      "scale": [
        0.5,
        1.0,
        0.4999999701976776
      ],
      "translation": [
        -0.1637919396162033,
        147.69615173339844,
        10.85497760772705
      ]
    },
    {
      "mesh": 5,
      "rotation": [
        0.6520537734031677,
        0.1166398748755455,
        -0.04847688227891922,
        0.7475767135620117
      ],
      "scale": [
        0.5,
        1.0,
        0.5
      ],
      "translation": [
        -0.3685002326965332,
        137.4664764404297,
        11.96773624420166
      ]
    },
    {
      "mesh": 6,
      "rotation": [
        0.6598286032676697,
        0.02784467488527298,
        -0.07268363237380981,
        0.7473740577697754
      ],
      "scale": [
        0.5,
        1.0,
        0.5
      ],
      "translation": [
        -0.5536668300628662,
        127.14070129394531,
        12.122370719909668
      ]
    },
    {
      "mesh": 7,
      "rotation": [
        0.8281835317611694,
        0.08553612232208252,
        0.03716886416077614,
        0.5526429414749146
      ],
      "scale": [
        0.5000000596046448,
        1.0,
        0.5
      ],
      "translation": [
        -0.037456560879945755,
        162.006591796875,
        5.519581317901611
      ]
    },
    {
      "mesh": 8,
      "rotation": [
        0.5558910369873047,
        0.02518940158188343,
        -0.12408442050218582,
        0.8215556740760803
      ],
      "scale": [
        0.5,
        1.0,
        0.4999999701976776
      ],
      "translation": [
        10.518919944763184,
        152.09156799316406,
        10.284117698669434
      ]
    },
    {
      "mesh": 9,
      "rotation": [
        0.17783024907112122,
        -0.37108805775642395,
        0.21353061497211456,
        0.886044442653656
      ],
      "scale": [
        0.7566968202590942,
        1.0,
        0.7566967606544495
      ],
      "translation": [
        -19.636898040771484,
        161.3616180419922,
        0.23267510533332825
      ]
    },
    {
      "mesh": 10,
      "rotation": [
        -0.02849268540740013,
        -0.29707813262939453,
        0.941800057888031,
        0.1547430157661438
      ],
      "scale": [
        0.7566968202590942,
        1.0000001192092896,
        0.7566967606544495
      ],
      "translation": [
        19.59506607055664,
        161.2308807373047,
        0.3867783546447754
      ]
    },
    {
      "mesh": 11,
      "rotation": [
        0.45069023966789246,
        -0.09979600459337234,
        0.038014378398656845,
        0.8862696886062622
      ],
      "scale": [
        0.5,
        1.0,
        0.5
      ],
      "translation": [
        -10.160475730895996,
        152.39154052734375,
        10.625762939453125
      ]
    }
  ],
  "samplers": [
    {
      "magFilter": 9729,
      "minFilter": 9987
    }
  ],
  "scene": 0,
  "scenes": [
    {
      "nodes": [
        0
      ]
    }
  ],
  "textures": [
    {
      "name": "Texture",
      "sampler": 0,
      "source": 0
    },
    {
      "name": "Texture",
      "sampler": 0,
      "source": 1
    },
    {
      "name": "Texture",
      "sampler": 0,
      "source": 2
    }
  ]
}